# xmcd CD database file
#
# Track frame offsets:
#	150
#	14332
#	27338
#	41481
#	53628
#	67258
#	81001
#	96349
#	110044
#	123371
#	139731
#	155575
#	168901
#	178700
#	189846
#	201871
#	215801
#	226296
#	238939
#	251578
#	264898
#	277669
#	288802
#	301118
#	314827
#
# Disc length: 4354 seconds
#
# Revision: 2
# Processed by: cddbd v1.5.1PL0 Copyright (c) Steve Scherf et al.
# Submitted via: CDex 1.51
#
DISCID=64110019
DTITLE=Various Artist - Chicago White Small Bands
DYEAR=1999
DGENRE=Jazz
TTITLE0=McKenzie And Condon's Chicagoans - Nobody's Sweetheart
TTITLE1=Chicago Rhythm Kings - There'll Be Some Changes Made
TTITLE2=Chicago Rhythm Kings - I've Found A New Baby
TTITLE3=Frank Teschmacher's Chicagoans - Jazz Me Blues
TTITLE4=Miff Mole and His Little Molers - Shimme-Sha-Wabble
TTITLE5=Wingy Manone and His Clus Royale Orchestra - Downright Disgusted
TTITLE6=Danny Altier and His Orchestra - My Gal Sal
TTITLE7=Eddie Condon and His Footwarmers - Makin' Frien's
TTITLE8=Bud Freeman And His Orchestra - Craze-Ology
TTITLE9=Eddie's Hot Shots - I'm Gonna Stomp Mr Henry Lee
TTITLE10=Eddie's Hot Shots - That's A Serious Thing
TTITLE11=Benny Goodman's Boys - After A While
TTITLE12=Benny Goodman's Boys - Muskrat Ramble
TTITLE13=Elmer Schoebel and His Friars Society Orchestra - Copenhagen
TTITLE14=Elmer Schoebel and His Friars Society Orchestra - Prince Of Wails
TTITLE15=The Cellar Boys - Barrel House Stomp
TTITLE16=The New Orlearns Rhythm Kings - San Antonio Shout
TTITLE17=The New Orlearns Rhythm Kings - Sensation
TTITLE18=Paul Mares And His Friars Society Orchestra - Reincarnation
TTITLE19=Paul Mares And His Friars Society Orchestra - Maple Leaf Rag
TTITLE20=The New Orlearns Rhythm Kings - Baby Brown
TTITLE21=Muggsy Spanier and His Ragtime Band - That Da Da Strain
TTITLE22=Muggsy Spanier and His Ragtime Band - Someday Sweetheart
TTITLE23=Muggsy Spanier and His Ragtime Band - (I Want A)Big Butter And Egg Man
TTITLE24=Muggsy Spanier and His Ragtime Band - Eccentric
EXTD=YEAR: 1999
EXTT0=
EXTT1=
EXTT2=
EXTT3=
EXTT4=
EXTT5=
EXTT6=
EXTT7=
EXTT8=
EXTT9=
EXTT10=
EXTT11=
EXTT12=
EXTT13=
EXTT14=
EXTT15=
EXTT16=
EXTT17=
EXTT18=
EXTT19=
EXTT20=
EXTT21=
EXTT22=
EXTT23=
EXTT24=
PLAYORDER=
